<svg width="20" height="14" viewBox="0 0 20 14" fill="none" xmlns="http://www.w3.org/2000/svg">
    <mask id="mask0_0_37" style="mask-type:alpha" maskUnits="userSpaceOnUse" x="0" y="0" width="20" height="14">
        <path fill-rule="evenodd" clip-rule="evenodd" d="M19 6H3.34449L7.38317 1.96132C7.7737 1.57079 7.7737 0.937627 7.38317 0.547102C6.99265 0.156578 6.35948 0.156578 5.96896 0.547102L0.312106 6.20396C0.15981 6.35625 0.0669065 6.54545 0.0333948 6.74277C0.0116092 6.82484 0 6.91107 0 7C0 7.06906 0.00699987 7.13648 0.0203288 7.20159C0.0316373 7.4415 0.128896 7.67812 0.312106 7.86132L5.96896 13.5182C6.35948 13.9087 6.99265 13.9087 7.38317 13.5182C7.7737 13.1277 7.7737 12.4945 7.38317 12.104L3.27921 8H19C19.5523 8 20 7.55228 20 7C20 6.44771 19.5523 6 19 6Z" fill="white"/>
    </mask>
    <g mask="url(#mask0_0_37)">
        <rect x="-2" y="-5" width="24" height="24" fill="white"/>
    </g>
</svg>
