<svg width="100" height="100" viewBox="0 0 100 100" fill="none" xmlns="http://www.w3.org/2000/svg">
    <path fill-rule="evenodd" clip-rule="evenodd" d="M50 100C77.6142 100 100 77.6142 100 50C100 22.3858 77.6142 0 50 0C22.3858 0 0 22.3858 0 50C0 77.6142 22.3858 100 50 100ZM10 50C10 72.0914 27.9086 90 50 90C72.0914 90 90 72.0914 90 50C90 27.9086 72.0914 10 50 10C27.9086 10 10 27.9086 10 50Z" fill="#E3ECF6"/>
    <path fill-rule="evenodd" clip-rule="evenodd" d="M39.6213 68.516C41.5925 70.4947 44.7885 70.4947 46.7597 68.516L74.5216 40.6493C76.4928 38.6707 76.4928 35.4626 74.5216 33.484C72.5504 31.5053 69.3544 31.5053 67.3832 33.484L43.1905 57.8393L31.6168 46.1507C29.6456 44.172 26.4496 44.172 24.4784 46.1507C22.5072 48.1293 22.5072 51.3374 24.4784 53.316L39.6213 68.516Z" fill="#4CD964"/>
</svg>
